<svg width="54" height="79" viewBox="0 0 54 79" fill="none" xmlns="http://www.w3.org/2000/svg">
<path d="M50.6927 1.75439C51.7104 2.77206 51.6444 4.37444 51.6444 4.37444C51.6444 4.37444 53.65 4.69168 53.6175 5.91971C53.5958 7.15285 53.6175 72.4962 53.6175 74.3024C53.6175 76.1087 47.9261 76.8557 47.9261 76.8557C47.9261 76.8557 48.3272 76.964 47.113 77.4603C45.8989 77.9566 38.603 78.0956 27.2635 78.0956C15.512 78.0956 8.3571 77.9771 6.98031 77.2966C5.60353 76.616 6.31902 76.7994 6.31902 76.7994C6.31902 76.7994 1.40813 76.1035 1.10459 74.502C0.790203 72.9004 1.10452 7.13238 1.10452 5.91459C1.10452 4.6968 2.92578 4.29257 2.92578 4.29257C2.92578 4.29257 2.36206 3.09013 3.66296 1.80581" fill="#F48FE9"/>
<path d="M27.5121 59.9954C26.8164 59.3468 26.2597 58.5303 25.7567 57.6916C25.2643 56.8528 24.8468 55.9469 24.5043 55.0298C24.4615 54.9179 24.4187 54.7949 24.3758 54.6831L24.2581 54.3364L24.0333 53.6318C23.9584 53.3969 23.9049 53.1509 23.8406 52.916C23.7764 52.67 23.7122 52.4351 23.6587 52.1891C23.5516 51.7082 23.4446 51.2161 23.3804 50.724C23.3054 50.2319 23.2091 49.7398 23.177 49.2477C23.1342 48.7444 23.0699 48.2747 23.0592 47.7267C23.0378 47.4583 23.0485 47.1899 23.0592 46.9215C23.0592 46.6531 23.0806 46.3846 23.1021 46.1162C23.1877 45.0426 23.4018 43.9466 23.7443 42.9176C24.0761 41.8887 24.515 40.9157 24.986 40.0434C25.4569 39.1599 25.9493 38.3434 26.3882 37.5717C27.298 36.0284 27.9938 34.5968 28.4327 33.0423C28.6467 32.2594 28.8073 31.4542 28.9036 30.6265C28.9465 30.2016 28.9893 29.7878 29.0107 29.3404L29.0535 28.6694C29.0642 28.4457 29.0856 28.222 29.0749 27.9983C29.1284 26.2201 29.0428 24.4307 28.7859 22.6413C28.6575 21.7465 28.4862 20.8518 28.24 19.9683C27.9938 19.0848 27.7048 18.2012 27.2659 17.3401C28.0473 17.8881 28.6896 18.6374 29.2569 19.4315C29.396 19.6328 29.5459 19.8341 29.6636 20.0466L30.0383 20.6841C30.156 20.8966 30.2631 21.1202 30.3808 21.3439C30.4343 21.4558 30.4985 21.5676 30.5521 21.6794L30.7019 22.015C31.5047 23.8379 32.0078 25.7951 32.2754 27.7858C32.3932 28.7812 32.5109 29.7542 32.5109 30.8167C32.5109 31.868 32.4253 32.9304 32.2112 33.9929C32.0078 35.0442 31.676 36.0843 31.2692 37.0573C31.0659 37.5494 30.8411 38.0079 30.6163 38.4665C30.3808 38.9138 30.1453 39.3612 29.8991 39.775C29.4067 40.6138 28.9251 41.3854 28.4969 42.1459C28.058 42.8953 27.6834 43.6222 27.3837 44.3492C27.0733 45.0873 26.8485 45.8366 26.6879 46.6195C26.5273 47.4136 26.4524 48.2188 26.4096 49.1359C26.3561 50.0306 26.3454 50.9253 26.3454 51.8312C26.3454 52.2786 26.3775 52.7259 26.3882 53.1844L26.431 53.8667L26.4524 54.2022L26.4845 54.5377C26.5595 55.4436 26.6879 56.3495 26.8592 57.2666C26.9876 58.1725 27.191 59.0784 27.5121 59.9954Z" fill="white"/>
<path fill-rule="evenodd" clip-rule="evenodd" d="M7.27421 1.75012L3.66301 1.7541C2.36211 3.03841 2.92583 4.24085 2.92583 4.24085C2.92583 4.24085 1.10457 4.64508 1.10457 5.86287C1.10457 5.99883 1.10065 6.93993 1.09413 8.50695C1.04221 20.9764 0.825284 73.0788 1.10457 74.5016C1.3768 75.9379 5.35471 76.6458 6.17262 76.7766C6.07488 76.7785 6.09674 76.8594 6.9803 77.2962C7.05931 77.3352 7.15735 77.3772 7.27421 77.4217V1.75012Z" fill="#E17BD5"/>
<path d="M2.49102 2.04071L0.964844 0.578125H53.6179L52.0917 2.04071H2.49102Z" fill="#AFAFAF"/>
<path d="M38.9922 71.0427C38.9922 71.4997 39.1737 71.938 39.4969 72.2611C39.82 72.5843 40.2583 72.7658 40.7153 72.7658C41.1723 72.7658 41.6106 72.5843 41.9337 72.2611C42.2569 71.938 42.4384 71.4997 42.4384 71.0427C42.4384 70.5857 42.2569 70.1474 41.9337 69.8243C41.6106 69.5011 41.1723 69.3196 40.7153 69.3196C40.2583 69.3196 39.82 69.5011 39.4969 69.8243C39.1737 70.1474 38.9922 70.5857 38.9922 71.0427V71.0427Z" fill="white"/>
<path opacity="0.8" d="M11.2031 57.6432C11.2031 58.1705 11.4126 58.6762 11.7855 59.0491C12.1583 59.422 12.664 59.6314 13.1913 59.6314C13.7186 59.6314 14.2243 59.422 14.5972 59.0491C14.9701 58.6762 15.1795 58.1705 15.1795 57.6432C15.1795 57.1159 14.9701 56.6102 14.5972 56.2374C14.2243 55.8645 13.7186 55.655 13.1913 55.655C12.664 55.655 12.1583 55.8645 11.7855 56.2374C11.4126 56.6102 11.2031 57.1159 11.2031 57.6432V57.6432Z" fill="white"/>
<path d="M22.9043 71.3953C22.9043 71.5578 22.9689 71.7138 23.0838 71.8287C23.1988 71.9437 23.3547 72.0083 23.5173 72.0083C23.6799 72.0083 23.8358 71.9437 23.9508 71.8287C24.0658 71.7138 24.1303 71.5578 24.1303 71.3953C24.1303 71.2327 24.0658 71.0767 23.9508 70.9618C23.8358 70.8468 23.6799 70.7822 23.5173 70.7822C23.3547 70.7822 23.1988 70.8468 23.0838 70.9618C22.9689 71.0767 22.9043 71.2327 22.9043 71.3953V71.3953Z" fill="white"/>
<path d="M27.291 74.6849C27.291 74.9442 27.394 75.1928 27.5773 75.3761C27.7606 75.5595 28.0093 75.6625 28.2685 75.6625C28.5278 75.6625 28.7764 75.5595 28.9598 75.3761C29.1431 75.1928 29.2461 74.9442 29.2461 74.6849C29.2461 74.4257 29.1431 74.177 28.9598 73.9937C28.7764 73.8104 28.5278 73.7074 28.2685 73.7074C28.0093 73.7074 27.7606 73.8104 27.5773 73.9937C27.394 74.177 27.291 74.4257 27.291 74.6849V74.6849Z" fill="white"/>
<path opacity="0.9" d="M31.6797 65.0432C31.6797 65.4607 31.8455 65.861 32.1407 66.1562C32.4359 66.4514 32.8362 66.6172 33.2537 66.6172C33.6711 66.6172 34.0715 66.4514 34.3667 66.1562C34.6618 65.861 34.8277 65.4607 34.8277 65.0432C34.8277 64.6258 34.6618 64.2254 34.3667 63.9302C34.0715 63.6351 33.6711 63.4692 33.2537 63.4692C32.8362 63.4692 32.4359 63.6351 32.1407 63.9302C31.8455 64.2254 31.6797 64.6258 31.6797 65.0432V65.0432Z" fill="white"/>
<path d="M15.5918 69.0997C15.5918 69.4292 15.7227 69.7453 15.9558 69.9784C16.1888 70.2114 16.5049 70.3423 16.8344 70.3423C17.164 70.3423 17.4801 70.2114 17.7131 69.9784C17.9461 69.7453 18.077 69.4292 18.077 69.0997C18.077 68.7701 17.9461 68.454 17.7131 68.221C17.4801 67.988 17.164 67.8571 16.8344 67.8571C16.5049 67.8571 16.1888 67.988 15.9558 68.221C15.7227 68.454 15.5918 68.7701 15.5918 69.0997Z" fill="white"/>
<path opacity="0.8" d="M38.9922 48.2709C38.9922 48.8949 39.2401 49.4933 39.6813 49.9345C40.1225 50.3757 40.7209 50.6236 41.3449 50.6236C41.9689 50.6236 42.5673 50.3757 43.0085 49.9345C43.4497 49.4933 43.6976 48.8949 43.6976 48.2709C43.6976 47.6469 43.4497 47.0485 43.0085 46.6073C42.5673 46.1661 41.9689 45.9182 41.3449 45.9182C40.7209 45.9182 40.1225 46.1661 39.6813 46.6073C39.2401 47.0485 38.9922 47.6469 38.9922 48.2709Z" fill="white"/>
<path d="M49.2302 59.0815C48.8423 59.0815 48.4703 58.9525 48.196 58.7227C47.9217 58.4929 47.7676 58.1813 47.7676 57.8564L47.7676 16.4292C47.7676 16.1042 47.9217 15.7926 48.196 15.5628C48.4703 15.3331 48.8423 15.204 49.2302 15.204C49.6181 15.204 49.9901 15.3331 50.2644 15.5628C50.5387 15.7926 50.6928 16.1042 50.6928 16.4292V57.8564C50.6928 58.1813 50.5387 58.4929 50.2644 58.7227C49.9901 58.9525 49.6181 59.0815 49.2302 59.0815Z" fill="#FFBFF8"/>
</svg>
