<?xml version="1.0" encoding="utf-8"?>
<!-- Generator: Adobe Illustrator 26.0.1, SVG Export Plug-In . SVG Version: 6.00 Build 0)  -->
<svg version="1.1" id="Layer_1" xmlns="http://www.w3.org/2000/svg" xmlns:xlink="http://www.w3.org/1999/xlink" x="0px" y="0px"
	 viewBox="0 0 68.9 110.9" style="enable-background:new 0 0 68.9 110.9;" xml:space="preserve">
<style type="text/css">
	.st0{fill:#FBAC1A;}
	.st1{fill:#AFAFAF;}
	.st2{fill:#1C1C1C;}
	.st3{opacity:0.85;fill-rule:evenodd;clip-rule:evenodd;fill:#1C1C1C;enable-background:new    ;}
</style>
<path class="st0" d="M55.9,2.8c1,1.4,1,3.7,1,3.7s1.8,0.4,1.8,2.1s0,93.8,0,96.3s-5.4,3.7-5.4,3.7s0.4,0.1-0.7,0.8
	c-1.1,0.7-8,0.8-18.6,0.8c-11.1,0-17.9-0.1-19.1-1.1c-1.3-1-0.6-0.7-0.6-0.7s-4.6-1-4.9-3.2c-0.3-2.3,0-94.9,0-96.6s1.7-2.3,1.7-2.3
	s-0.4-1.7,0.7-3.5"/>
<path class="st1" d="M10.7,3.1l-1.4-2h49.4l-1.5,2H10.7z"/>
<path class="st1" d="M54.5,83.3c-0.4,0-0.7-0.1-1-0.6c-0.3-0.3-0.4-0.7-0.4-1.3V23.3c0-0.4,0.1-0.8,0.4-1.3c0.3-0.3,0.6-0.6,1-0.6
	s0.7,0.1,1,0.6c0.3,0.3,0.4,0.7,0.4,1.3v58.3c0,0.4-0.1,0.8-0.4,1.3C55.3,83.3,54.9,83.3,54.5,83.3z"/>
<path class="st2" d="M48.7,70L37.3,43.5l2.8-0.8l-8.3,26.1l-1.4,4.5l-1.1-3.7l-9.6-33.4h0.1l11.8,29.2l-2.5,0.8l8-26.2l1.5-5
	l1.3,4.2L48.7,70L48.7,70z"/>
<path class="st3" d="M14.9,2.8h-3.2c-1.1,1.7-0.6,3.4-0.6,3.4S9.5,6.7,9.5,8.5c0,0.1,0,1.5,0,3.7C9.3,29.8,9.1,103,9.5,105
	c0.3,2,3.7,3,4.5,3.2c-0.2,0-0.2,0.1,0.6,0.7c0.2,0,0.2,0.1,0.3,0.1C14.9,109,14.9,2.8,14.9,2.8z"/>
</svg>
