<svg width="65" height="104" viewBox="0 0 65 104" fill="none" xmlns="http://www.w3.org/2000/svg">
<rect x="0.564453" y="35.8163" width="46.8027" height="67.2789" fill="#DCEBEB"/>
<path d="M12.2656 2.71423C12.2656 1.60966 13.1611 0.714233 14.2656 0.714233H51.218C52.3226 0.714233 53.218 1.60966 53.218 2.71423V9.48974H12.2656V2.71423Z" fill="#E8E5DE"/>
<path d="M53.141 9.48975L40.0547 35.8163V103.095H64.9186V35.8163L53.141 9.48975Z" fill="#DCEBEB"/>
<path d="M51.6014 9.48975L40.0547 34.9936V100.17H61.9935V34.9936L51.6014 9.48975Z" fill="#E7FAF6"/>
<path d="M0.564453 35.8163L12.1224 9.48975H53.2175L40.3753 35.8163H0.564453Z" fill="#50CCF3"/>
<path d="M7.35467 55.2021C7.37605 55.4675 7.39484 55.7407 7.41056 56.0208C7.42696 56.2999 7.4353 56.6104 7.4353 56.9487C7.59503 56.5218 7.76846 56.1682 7.9559 55.8872C8.14314 55.608 8.34898 55.3869 8.57324 55.2247C8.78764 55.077 9.01743 54.9763 9.25433 54.9263C9.49459 54.8742 9.74291 54.8569 9.99937 54.8708C10.769 54.8854 11.3676 55.1804 11.7945 55.7554C12.2222 56.3294 12.4517 57.037 12.4843 57.8775C12.7509 57.1846 13.0931 56.7285 13.5092 56.5065C13.9261 56.2862 14.3693 56.1821 14.8397 56.1977C15.2568 56.2272 15.62 56.3294 15.9299 56.5065C16.24 56.6834 16.491 56.927 16.6834 57.2367C16.8757 57.5453 17.0139 57.9026 17.1002 58.3083C17.1851 58.7142 17.2122 59.1523 17.1801 59.6231C17.139 60.2966 17.1069 60.9712 17.0838 61.6463C17.0603 62.3574 17.039 63.0685 17.0197 63.7798C17.0197 63.8977 16.9957 64.0199 16.9474 64.1449C16.8997 64.2697 16.8167 64.34 16.6995 64.3547C16.4104 64.3989 16.1381 64.4137 15.8821 64.3989C15.6251 64.3842 15.3898 64.3477 15.1768 64.2879C15.0699 64.2594 14.9894 64.1962 14.936 64.0998C14.8826 64.0043 14.856 63.9055 14.856 63.8013C14.8775 63.0644 14.9039 62.3533 14.936 61.668C14.9687 60.9829 15.0058 60.3384 15.0485 59.7341C15.059 59.509 15.0535 59.2829 15.0321 59.0592C15.0107 58.8322 14.9523 58.6136 14.856 58.4071C14.77 58.2164 14.6448 58.0574 14.4794 57.9318C14.3133 57.8068 14.0915 57.7374 13.8142 57.722C13.4829 57.6786 13.2074 57.793 12.9893 58.0655C12.7699 58.3376 12.585 58.6656 12.4359 59.0489C12.4023 59.7628 12.3782 60.4775 12.3636 61.1927C12.348 61.9595 12.3341 62.6739 12.3235 63.3373C12.3235 63.4562 12.2938 63.5777 12.2355 63.7026C12.1764 63.8274 12.0883 63.8977 11.9712 63.9125C11.6606 63.9567 11.391 63.9818 11.1614 63.9896C10.9337 63.9973 10.7059 63.9787 10.4805 63.9341C10.3623 63.8899 10.2805 63.8205 10.2322 63.7242C10.1842 63.6288 10.1597 63.5361 10.1597 63.4476C10.1704 62.5639 10.1918 61.7278 10.2239 60.9396C10.2559 60.1503 10.2931 59.3073 10.3358 58.4072C10.3465 58.1869 10.3415 57.9623 10.3202 57.7333C10.2984 57.5037 10.2439 57.2824 10.1597 57.0821C10.0636 56.8896 9.93274 56.7317 9.76736 56.6068C9.6014 56.4811 9.3852 56.4109 9.1179 56.3959C8.76575 56.3813 8.4369 56.5252 8.13192 56.827C7.82752 57.1288 7.60068 57.4567 7.45083 57.8106C7.47221 58.3274 7.48803 58.8461 7.49867 59.3697L7.53079 60.9274C7.54201 61.4443 7.54968 61.9411 7.55534 62.4198C7.56042 62.8994 7.57355 63.3668 7.59503 63.8238C7.59503 64.1483 7.49618 64.3476 7.29877 64.4206C7.1006 64.4952 6.87932 64.5385 6.63359 64.5532C6.50029 64.5675 6.36664 64.5747 6.23293 64.5749C6.10465 64.5749 5.97081 64.5835 5.8318 64.5976C5.73621 64.5976 5.65002 64.5792 5.57581 64.542C5.50045 64.5056 5.46325 64.4067 5.46325 64.2436C5.45261 63.4041 5.44187 62.6115 5.43123 61.8673C5.42134 61.1487 5.40516 60.4303 5.38272 59.7123C5.36172 59.0118 5.33513 58.3115 5.30295 57.6118C5.2715 56.9189 5.23382 56.1609 5.19097 55.3353C5.16901 55.1724 5.19615 55.0665 5.2715 55.0145C5.34561 54.9623 5.41551 54.9145 5.47955 54.8704C5.66133 54.8114 5.89843 54.7716 6.19267 54.749C6.48633 54.7264 6.75104 54.7231 6.98622 54.7385C7.19993 54.7389 7.32255 54.8934 7.35467 55.2021Z" fill="#50CCF3"/>
<path d="M5.84128 64.9128H5.83255C5.7106 64.9128 5.59862 64.8885 5.4992 64.8399C5.42058 64.8009 5.23516 64.6647 5.23516 64.2433L5.20304 61.8732C5.19281 61.1569 5.17664 60.4408 5.15453 59.7251C5.1341 59.0268 5.10773 58.3289 5.07543 57.6314C5.04331 56.9395 5.00554 56.1815 4.96287 55.3576C4.90947 54.9622 5.08914 54.787 5.16968 54.7316L5.42806 54.5634C5.6223 54.5 5.87512 54.4559 6.18077 54.4334C6.48326 54.4108 6.75487 54.4073 6.99695 54.423H6.99762C7.31641 54.423 7.53337 54.6902 7.58246 55.1576C7.60259 55.4116 7.62023 55.665 7.63596 55.9214C7.68425 55.8358 7.73524 55.7531 7.78878 55.6736C7.99251 55.3683 8.22127 55.1227 8.46719 54.945C8.70406 54.7812 8.95802 54.6695 9.2199 54.6138C9.48113 54.5593 9.74556 54.5396 10.0095 54.5549C10.8301 54.5704 11.4866 54.8983 11.955 55.5287C12.2765 55.9612 12.4978 56.4661 12.616 57.0367C12.8486 56.6517 13.1208 56.375 13.4283 56.2111C13.8434 55.9907 14.2892 55.8799 14.7537 55.8799L14.8457 55.8808C15.2939 55.9128 15.6865 56.0256 16.0182 56.2144C16.3603 56.4088 16.6426 56.6837 16.8584 57.0298C17.0702 57.3715 17.2262 57.7721 17.3205 58.2196C17.4134 58.6628 17.443 59.144 17.4092 59.6523C17.3682 60.3209 17.3363 60.9905 17.3136 61.6607C17.2923 62.3007 17.2709 63.0109 17.2495 63.7915C17.2495 63.9502 17.2166 64.1228 17.1508 64.2926C17.0678 64.5103 16.9143 64.6438 16.7207 64.6683C16.427 64.7134 16.1378 64.729 15.8737 64.7134C15.6065 64.6987 15.3568 64.6596 15.1324 64.5973C14.9703 64.5529 14.8431 64.4497 14.755 64.2918C14.6708 64.1419 14.6281 63.9762 14.6281 63.8009C14.6501 63.0491 14.6765 62.3353 14.7086 61.6476C14.7407 60.9583 14.7785 60.3112 14.8212 59.7025C14.8304 59.5016 14.8254 59.2999 14.806 59.1004C14.7892 58.9167 14.7426 58.7458 14.6646 58.5777C14.5967 58.4276 14.5012 58.3078 14.3703 58.209C14.237 58.1084 14.0466 58.0513 13.8064 58.0373C13.7643 58.0319 13.7221 58.029 13.6799 58.0287C13.4649 58.0287 13.2897 58.1173 13.143 58.2993C12.9557 58.5335 12.7933 58.8162 12.6614 59.1389C12.6303 59.826 12.6076 60.5139 12.5934 61.2021C12.5777 61.9677 12.5639 62.6823 12.5533 63.3449C12.5533 63.5167 12.5117 63.6971 12.4286 63.8732C12.3306 64.0823 12.1797 64.2035 11.9922 64.2261C11.6798 64.2712 11.4013 64.2971 11.1679 64.3059L11.0642 64.3068C10.8582 64.307 10.6525 64.287 10.4485 64.247C10.251 64.1757 10.124 64.0623 10.0442 63.9036C9.97012 63.7543 9.93168 63.6008 9.93168 63.4474C9.94174 62.5637 9.9637 61.7154 9.99649 60.9211C10.0285 60.1319 10.0657 59.2865 10.1085 58.3862C10.1182 58.182 10.1134 57.9769 10.0939 57.774C10.0758 57.5851 10.0309 57.403 9.96188 57.238C9.89716 57.1114 9.79151 56.9839 9.65815 56.8825C9.5243 56.7818 9.33936 56.7247 9.10926 56.7118H9.10687C8.78051 56.7118 8.51877 56.8339 8.26662 57.0837C8.01274 57.3352 7.81716 57.6076 7.68447 57.8919C7.70393 58.3776 7.71841 58.8675 7.72905 59.361L7.76107 60.9185C7.77171 61.4354 7.77938 61.9349 7.78504 62.4144C7.7907 62.8889 7.80316 63.3518 7.82454 63.8028C7.82454 64.4577 7.53299 64.6605 7.35869 64.7257C7.14613 64.8056 6.90606 64.8532 6.64442 64.8688C6.38105 64.8973 6.12698 64.8834 5.85029 64.912L5.84128 64.9128ZM5.69114 64.2606C5.73501 64.2748 5.77993 64.2818 5.82498 64.2814C6.09803 64.2528 6.34127 64.2676 6.61671 64.2382C6.85256 64.2243 7.05937 64.1826 7.23923 64.1148C7.30902 64.0889 7.36684 64.0499 7.36684 63.8235C7.34512 63.3578 7.33192 62.8914 7.32724 62.4247C7.32149 61.9468 7.31343 61.4507 7.3027 60.9366L7.27067 59.3782C7.26252 58.9723 7.25121 58.5698 7.23616 58.1691L7.20653 58.2471V56.9481C7.20653 56.6185 7.19906 56.3176 7.18333 56.0444C7.16779 55.7747 7.14935 55.5053 7.12801 55.2363C7.11085 55.0716 7.07193 55.0541 6.98708 55.0541C6.73301 55.0385 6.49102 55.0438 6.20608 55.0636C5.94147 55.0834 5.72335 55.1201 5.55854 55.1703L5.41761 55.2674L5.4201 55.3125C5.46277 56.1381 5.50054 56.8978 5.53266 57.5916C5.56468 58.2872 5.59124 58.9887 5.61319 59.699C5.63467 60.3928 5.6503 61.1143 5.66103 61.8602L5.69354 64.2382C5.69361 64.2458 5.6928 64.2534 5.69114 64.2606ZM13.6797 57.3974C13.7306 57.3974 13.7829 57.4008 13.837 57.4078C14.1408 57.4233 14.3909 57.5049 14.5897 57.654C14.7896 57.8065 14.9451 58.0029 15.0512 58.2412C15.162 58.4758 15.2335 58.7415 15.2606 59.0191C15.284 59.267 15.2896 59.5142 15.2776 59.7546C15.2327 60.3983 15.1954 61.043 15.1657 61.6885C15.1328 62.3965 15.1062 63.1051 15.0858 63.8141C15.0858 63.8219 15.0889 63.8548 15.1179 63.9066C15.1366 63.9398 15.1719 63.9642 15.2224 63.9779C15.4236 64.0333 15.6494 64.0689 15.8926 64.0828C16.1372 64.096 16.3988 64.0828 16.6747 64.0403C16.7321 64.0333 16.7403 64.0126 16.7458 63.997C16.7766 63.9172 16.7917 63.8453 16.7917 63.7793C16.8131 62.9858 16.8345 62.2728 16.8566 61.6312C16.8773 60.9868 16.91 60.3086 16.9533 59.5967C16.9823 59.1647 16.9578 58.7615 16.8812 58.3955C16.805 58.0357 16.6804 57.7147 16.5108 57.4406C16.3428 57.1709 16.1184 56.9549 15.8429 56.7981C15.5593 56.636 15.2179 56.5396 14.8289 56.512L14.7538 56.511C14.3457 56.511 13.9554 56.6081 13.5925 56.8006C13.231 56.993 12.9268 57.4041 12.6871 58.0251L12.6815 58.0388C12.731 57.9662 12.7828 57.8966 12.8367 57.83C13.0674 57.5431 13.3509 57.3974 13.6797 57.3974ZM9.07015 56.0792L9.12556 56.0801C9.4291 56.0965 9.68202 56.1808 9.87827 56.3289C10.0743 56.4781 10.2329 56.6697 10.3492 56.9014C10.4591 57.165 10.5227 57.4233 10.5479 57.6921C10.5712 57.9402 10.5767 58.1883 10.5655 58.4277C10.5227 59.3261 10.4855 60.1692 10.4529 60.9565C10.4207 61.7421 10.4 62.5817 10.3894 63.4524C10.3894 63.4559 10.3919 63.4863 10.4207 63.5442C10.4283 63.559 10.4547 63.5964 10.5408 63.6292C10.6944 63.6571 10.8792 63.6754 11.0641 63.6754L11.1571 63.6735C11.3785 63.6666 11.6444 63.6417 11.9488 63.5981C12.0111 63.5897 12.03 63.5599 12.0445 63.5304C12.0777 63.4576 12.0953 63.3925 12.0953 63.337C12.1059 62.6667 12.1192 61.9504 12.1356 61.1837C12.1519 60.4136 12.1759 59.6948 12.2079 59.0278L12.2349 58.8994C12.2525 58.8533 12.2707 58.8083 12.2895 58.7641L12.2562 57.8935C12.2266 57.1286 12.0235 56.5034 11.6356 55.9804C11.2538 55.4669 10.7025 55.1999 9.99687 55.1859C9.7265 55.1703 9.51404 55.1894 9.29018 55.238C9.07674 55.2832 8.86969 55.3739 8.67648 55.5069C8.47965 55.6491 8.29356 55.8493 8.12501 56.1018C7.98552 56.3099 7.85215 56.5683 7.72646 56.871C7.81361 56.7643 7.90468 56.6638 7.99932 56.57C8.32827 56.2441 8.68857 56.0792 9.07015 56.0792ZM20.8516 54.7817C20.509 54.7817 20.2026 54.6308 19.9299 54.3289C19.6576 54.0273 19.5213 53.5738 19.5213 52.9692C19.5213 52.8069 19.5475 52.6258 19.6016 52.428C19.6544 52.2287 19.7399 52.0412 19.8576 51.8633C19.9752 51.7011 20.114 51.5538 20.2745 51.4219C20.4347 51.2884 20.6379 51.2225 20.8837 51.2225C21.2145 51.2225 21.5164 51.3856 21.7892 51.7082C22.0615 52.0334 22.198 52.4531 22.198 52.9691C22.198 53.2344 22.1552 53.4774 22.0697 53.6985C21.9836 53.9197 21.883 54.1113 21.7654 54.2734C21.4867 54.6127 21.1825 54.7817 20.8516 54.7817ZM21.9094 57.2794C21.9628 58.2681 22.0138 59.3175 22.0615 60.43C22.11 61.5427 22.1388 62.6441 22.1495 63.735C22.1495 64.0889 22.0565 64.3022 21.8691 64.3759C21.6824 64.4497 21.4554 64.4948 21.188 64.5087C21.0555 64.5391 20.9217 64.5576 20.7875 64.5641C20.6486 64.5711 20.509 64.5833 20.3706 64.5973C20.2844 64.5973 20.2026 64.5641 20.1221 64.4983C20.0417 64.4316 20.0021 64.3396 20.0021 64.2207L19.9537 62.1654C19.9323 61.5462 19.9135 60.9357 19.8978 60.3303C19.882 59.7268 19.8575 59.0929 19.8254 58.4293C19.8145 58.0757 19.8093 57.7218 19.8095 57.3679C19.8095 57.0003 19.7826 56.6168 19.7291 56.2189C19.7185 56.1609 19.7506 56.0974 19.8254 56.0306C19.8969 55.966 19.9807 55.9316 20.0662 55.9317C20.397 55.9317 20.7258 55.9535 21.0514 55.9977C21.378 56.0419 21.6789 56.145 21.9569 56.3074C22.2348 56.499 22.2727 56.728 22.0695 56.9924L21.9094 57.2794Z" fill="#50CCF3"/>
<path d="M20.3782 64.9129H20.3701C20.2437 64.9129 20.1199 64.8644 20.0035 64.769C19.8544 64.6458 19.7728 64.4507 19.7728 64.2208L19.7244 62.1758C19.7029 61.5602 19.6842 60.9478 19.6683 60.3426C19.6516 59.7113 19.6275 59.0804 19.596 58.4502C19.5854 58.0998 19.5804 57.7426 19.5804 57.3679C19.5804 57.021 19.5546 56.6533 19.5036 56.2768C19.4855 56.1815 19.4829 55.9596 19.7011 55.7652C19.8096 55.6678 19.9363 55.616 20.0658 55.6162C20.4016 55.6162 20.7411 55.6385 21.0737 55.6836C21.4203 55.7306 21.7478 55.8424 22.0458 56.0168C22.2761 56.1746 22.3981 56.3654 22.4226 56.5943C22.4458 56.8113 22.3798 57.0217 22.2265 57.2223L22.1441 57.3749C22.1949 58.3288 22.2434 59.3417 22.2899 60.412C22.3377 61.5151 22.3673 62.632 22.378 63.7309C22.378 64.4039 22.0988 64.6146 21.9322 64.6806C21.729 64.7604 21.4814 64.8088 21.1964 64.8244C21.0877 64.8522 20.9444 64.872 20.7953 64.88C20.6601 64.8869 20.5236 64.8982 20.3878 64.912L20.3782 64.9129ZM19.9689 56.2804C20.0154 56.6631 20.0381 57.0235 20.0381 57.368C20.0381 57.7322 20.0432 58.081 20.0538 58.4157C20.0858 59.0746 20.1097 59.7122 20.1261 60.3193C20.1417 60.9229 20.1605 61.5325 20.1819 62.15L20.2304 64.2115C20.2813 64.2609 20.321 64.28 20.3632 64.2816C20.5009 64.2679 20.6392 64.2566 20.7776 64.2487C20.9023 64.2422 21.0266 64.2251 21.1498 64.1975C21.4264 64.1793 21.6376 64.1395 21.8056 64.0726C21.8459 64.0571 21.92 64.0276 21.92 63.7352C21.909 62.6389 21.8798 61.5431 21.8326 60.4486C21.7849 59.3384 21.7339 58.2893 21.6805 57.304L21.6742 57.1835L21.8874 56.801C21.9358 56.7333 21.956 56.6961 21.9648 56.6779C21.9529 56.6725 21.9227 56.637 21.8548 56.5902C21.6114 56.4488 21.3297 56.3534 21.0292 56.3119C20.709 56.2692 20.3876 56.2478 20.0659 56.2477C20.0321 56.2471 19.9987 56.2583 19.9689 56.2804ZM20.851 55.0977C20.4574 55.0977 20.0989 54.9216 19.7852 54.5747C19.4576 54.2112 19.291 53.6718 19.291 52.9693C19.291 52.7699 19.3231 52.5505 19.386 52.3171C19.4488 52.0812 19.5514 51.8576 19.6884 51.6503C19.8263 51.4603 19.9815 51.2955 20.1562 51.1508C20.3511 50.9886 20.5959 50.9069 20.883 50.9069C21.2685 50.9069 21.6237 51.0961 21.9382 51.469C22.2621 51.8558 22.4261 52.3606 22.4261 52.9693C22.4261 53.2851 22.3739 53.5807 22.2709 53.847C22.174 54.0968 22.0576 54.3153 21.9263 54.4974C21.5962 54.8997 21.2383 55.0977 20.851 55.0977ZM20.883 51.5384C20.6806 51.5384 20.5146 51.5905 20.392 51.6928C20.2487 51.8108 20.1228 51.9436 20.0191 52.0873C19.9292 52.2235 19.8582 52.3778 19.8155 52.5365C19.7713 52.7003 19.7495 52.8453 19.7495 52.9692C19.7495 53.4775 19.855 53.8418 20.0726 54.0828C20.5265 54.5849 21.1264 54.6301 21.613 54.0368C21.7024 53.9118 21.7917 53.7436 21.8671 53.5494C21.935 53.3733 21.9683 53.1832 21.9683 52.969C21.9683 52.5459 21.8609 52.2112 21.6389 51.9475C21.407 51.672 21.1591 51.5384 20.883 51.5384Z" fill="#50CCF3"/>
<path d="M26.7017 52.4601C26.7219 53.3229 26.754 54.185 26.7981 55.0461C26.8301 55.8856 26.859 56.752 26.886 57.6435C26.9124 58.5359 26.9369 59.4821 26.9583 60.4837C26.9798 60.985 26.9904 61.5088 26.9904 62.0542C26.9904 62.5997 26.9954 63.1809 27.0061 63.7998C27.0061 63.963 26.9798 64.0914 26.9263 64.1867C26.873 64.283 26.8007 64.3561 26.7182 64.3974C26.632 64.4418 26.5277 64.4747 26.405 64.4972C26.2823 64.5189 26.1565 64.5372 26.029 64.5518C25.8874 64.5659 25.7457 64.5772 25.6039 64.5857C25.4699 64.5927 25.3284 64.5963 25.1788 64.5963C24.965 64.5963 24.858 64.4782 24.858 64.2423C24.8277 62.0755 24.785 59.9091 24.7298 57.7433C24.6742 55.5542 24.61 53.3656 24.5373 51.1775C24.5266 51.0152 24.5562 50.9044 24.626 50.8453C24.6951 50.7873 24.7676 50.7568 24.8425 50.7568C25.1523 50.7568 25.4912 50.8089 25.8603 50.9122C26.2287 51.0152 26.552 51.148 26.83 51.3102C26.9581 51.4134 27.0354 51.5496 27.062 51.7196C27.0888 51.8887 27.0437 52.0543 26.9261 52.2164L26.7017 52.4601Z" fill="#50CCF3"/>
<path d="M25.1791 64.9123C24.7741 64.9123 24.6296 64.5672 24.6296 64.2428C24.5981 62.0487 24.5548 59.8642 24.5013 57.7543C24.4452 55.5668 24.3813 53.3796 24.3095 51.1928C24.285 50.8252 24.4227 50.6482 24.5069 50.577C24.612 50.4877 24.725 50.4419 24.8429 50.4419C25.1659 50.4419 25.5237 50.4965 25.9061 50.6032C26.2871 50.7107 26.6284 50.8502 26.9196 51.0194C27.1283 51.1849 27.246 51.3975 27.2861 51.6525C27.3163 51.8451 27.307 52.1382 27.0887 52.4398L26.9347 52.6089C26.9447 52.9949 26.9573 53.3747 26.9704 53.7484C26.9862 54.1743 27.005 54.5993 27.0264 55.0241C27.0592 55.8714 27.0881 56.7387 27.1152 57.631C27.1414 58.5242 27.166 59.4722 27.1875 60.4757C27.2082 60.9717 27.2195 61.5058 27.2195 62.0548C27.2195 62.5967 27.2254 63.1769 27.236 63.7935C27.236 64.0329 27.1925 64.228 27.1081 64.3797C27.0284 64.5229 26.9246 64.6278 26.7989 64.6938C26.6958 64.7459 26.5737 64.7857 26.4349 64.81C26.3063 64.8328 26.1774 64.8519 26.0482 64.8672C25.8928 64.8828 25.7488 64.8932 25.6137 64.9011C25.4773 64.9088 25.3325 64.9123 25.1791 64.9123ZM24.7628 51.1027C24.7647 51.1094 24.7642 51.1259 24.7658 51.1495C24.8414 53.4344 24.9063 55.6243 24.9591 57.7325C25.0143 59.9001 25.057 62.0682 25.0872 64.2368C25.081 64.2611 25.1048 64.2809 25.1791 64.2809C25.3249 64.2809 25.464 64.2775 25.5946 64.2706C25.7255 64.2627 25.865 64.2524 26.0122 64.2377C26.1338 64.2238 26.2552 64.2059 26.3762 64.184C26.48 64.1648 26.568 64.138 26.6378 64.1023C26.6831 64.0781 26.7177 64.0444 26.7455 63.9948C26.7717 63.9472 26.7775 63.8629 26.7775 63.8004C26.7672 63.2186 26.762 62.6367 26.7617 62.0548C26.7617 61.5179 26.7511 60.9959 26.7296 60.5035C26.7093 59.5545 26.6852 58.6057 26.6573 57.6571C26.6319 56.7923 26.6027 55.9277 26.5699 55.0633C26.5481 54.636 26.5293 54.2084 26.5133 53.7806C26.4966 53.3443 26.4832 52.9078 26.4731 52.4711L26.4694 52.3107L26.785 51.9689C26.8522 51.8728 26.8423 51.8085 26.8391 51.787C26.8308 51.7358 26.809 51.6594 26.7145 51.5831C26.4781 51.4479 26.1662 51.3212 25.8147 51.2223C25.4618 51.1234 25.135 51.074 24.8427 51.074C24.8156 51.0738 24.7905 51.0835 24.7628 51.1027Z" fill="#50CCF3"/>
<path d="M36.1425 56.0418C35.9912 56.2207 35.8365 56.394 35.6785 56.5614C35.5165 56.7324 35.356 56.9058 35.1969 57.0819C35.0342 57.2615 34.874 57.4454 34.7164 57.6334C34.5591 57.8213 34.4042 58.013 34.2518 58.2083C34.8175 59.1521 35.3094 60.0027 35.7263 60.7624C36.1425 61.521 36.506 62.2028 36.816 62.8074C36.9336 63.0717 36.931 63.3085 36.8078 63.5142C36.6844 63.7206 36.5115 63.9339 36.287 64.1551C36.0626 64.3762 35.8488 64.5462 35.6458 64.6633C35.5279 64.7222 35.4055 64.7519 35.2772 64.7519C35.1488 64.7519 35.0421 64.672 34.9564 64.5089C34.7711 64.1264 34.5867 63.7431 34.4031 63.3591C34.2281 62.9936 34.0521 62.629 33.875 62.2655C33.6968 61.901 33.5151 61.5399 33.3299 61.1822C33.1341 60.8053 32.9337 60.4329 32.7287 60.0653C32.6104 60.1841 32.4978 60.3134 32.3916 60.4522C32.2862 60.5905 32.1795 60.727 32.0716 60.8614C31.9623 60.9979 31.8554 61.1379 31.7509 61.2813C31.649 61.4215 31.5419 61.5543 31.4302 61.6793V63.2274C31.4302 63.4043 31.4359 63.596 31.4467 63.8014C31.4467 63.9645 31.4195 64.0929 31.366 64.1883C31.3127 64.2845 31.2404 64.3576 31.1579 64.3989C31.0718 64.4434 30.9705 64.4763 30.8536 64.4988C30.7257 64.5219 30.5974 64.5401 30.4687 64.5534C30.3298 64.568 30.1901 64.5794 30.0518 64.5872C29.9128 64.5942 29.774 64.5978 29.6348 64.5978C29.4211 64.5978 29.3141 64.4797 29.3141 64.2438C29.2926 63.1824 29.2745 62.1477 29.2582 61.1382C29.2425 60.1289 29.218 59.1081 29.1859 58.0761C29.1541 57.0521 29.1248 56.0279 29.0979 55.0036C29.0708 53.9724 29.0368 52.8814 28.9934 51.7313C28.972 51.5701 28.9991 51.4592 29.074 51.4002C29.1482 51.3413 29.218 51.3118 29.2828 51.3118C29.5922 51.3118 29.9316 51.3637 30.3 51.4661C30.6692 51.5701 30.9917 51.7019 31.2696 51.8641C31.398 51.9674 31.4753 52.1044 31.5023 52.2736C31.5286 52.4426 31.4836 52.6091 31.3658 52.7706L31.1577 53.0143C31.1678 53.707 31.1866 54.3593 31.2137 54.9698C31.24 55.5821 31.2638 56.1979 31.286 56.8162C31.318 57.4354 31.3444 58.058 31.3658 58.6842C31.3872 59.3112 31.403 59.9928 31.4137 60.7292C32.1084 59.8454 32.8435 58.9539 33.6182 58.0544C34.3921 57.1552 35.1215 56.3227 35.8056 55.556C35.9554 55.4242 36.0729 55.4381 36.1584 55.6002C36.2012 55.6601 36.2226 55.733 36.2226 55.8214C36.223 55.9094 36.1959 55.9838 36.1425 56.0418Z" fill="#50CCF3"/>
<path d="M35.2771 65.0678C35.1355 65.0678 34.9338 65.0029 34.7708 64.6941L34.2126 63.5339C34.0376 63.1687 33.8618 62.8044 33.685 62.441C33.5077 62.079 33.327 61.7203 33.143 61.3647C32.9937 61.0773 32.8417 60.7925 32.6871 60.5105C32.6406 60.5661 32.5941 60.6224 32.5494 60.6804C32.4427 60.8206 32.3345 60.9588 32.225 61.095C32.1186 61.2279 32.0146 61.3645 31.913 61.5045C31.8314 61.6166 31.7467 61.7242 31.659 61.827V63.2267C31.659 63.3968 31.6648 63.5807 31.6747 63.7783C31.6755 64.0332 31.6326 64.2284 31.5477 64.38C31.468 64.5232 31.3641 64.6281 31.2389 64.6941C31.1359 64.7462 31.0171 64.786 30.8844 64.8103C30.7624 64.8328 30.6297 64.8518 30.4863 64.8676C30.3443 64.8832 30.2028 64.8935 30.0606 64.9014C29.9192 64.9092 29.7771 64.9127 29.6351 64.9127C29.2302 64.9127 29.0855 64.5675 29.0855 64.2432C29.0641 63.1903 29.046 62.1548 29.0296 61.1444C29.0132 60.1376 28.9892 59.1186 28.9572 58.0894C28.9252 57.0712 28.8956 56.0461 28.8692 55.0142C28.8423 53.9839 28.8083 52.8946 28.7656 51.7472C28.7134 51.3692 28.8849 51.1842 28.961 51.1253C29.0692 51.0387 29.178 50.9954 29.283 50.9954C29.6055 50.9954 29.9633 51.049 30.3457 51.1567C30.7266 51.2634 31.0681 51.403 31.3592 51.5729C31.5679 51.7377 31.6854 51.951 31.7257 52.205C31.7564 52.3985 31.7471 52.6916 31.5283 52.9935L31.3894 53.1564C31.4 53.7896 31.4176 54.3879 31.4422 54.9499C31.4692 55.564 31.4931 56.1798 31.5145 56.8006C31.5465 57.4146 31.5735 58.0407 31.595 58.6687C31.6094 59.0962 31.6213 59.5479 31.6308 60.0268C32.2342 59.273 32.8475 58.5346 33.4706 57.8119C34.1957 56.9696 34.926 56.1359 35.6614 55.3108C35.9631 55.0368 36.1901 55.1242 36.3434 55.4131C36.4063 55.4963 36.4517 55.6498 36.4517 55.8206C36.4517 56.0046 36.3926 56.1701 36.2857 56.2889C36.133 56.469 35.9768 56.6434 35.8172 56.8119C35.657 56.9817 35.4979 57.1537 35.3401 57.3278C35.1794 57.505 35.0213 57.6866 34.8659 57.8725C34.7649 57.9929 34.6649 58.1148 34.566 58.2384C35.074 59.09 35.5255 59.8741 35.9084 60.5714C36.3272 61.3329 36.6913 62.018 37.0024 62.6241C37.1798 63.0221 37.1703 63.4028 36.9842 63.7141C36.8479 63.9439 36.6629 64.1722 36.4204 64.4112C36.1826 64.6454 35.9524 64.8284 35.7349 64.9541C35.5884 65.0293 35.4334 65.0678 35.2771 65.0678ZM32.7739 59.6288L32.9104 59.8724C33.1168 60.2429 33.3186 60.6182 33.5158 60.9982C33.7021 61.3581 33.8848 61.7215 34.0641 62.0882C34.2422 62.4526 34.4189 62.8183 34.5942 63.1853L35.1468 64.3335C35.1941 64.4227 35.2381 64.4358 35.2771 64.4358C35.3761 64.4365 35.4744 64.413 35.5675 64.3664C35.7429 64.2642 35.9442 64.1046 36.1536 63.8982C36.361 63.6935 36.5213 63.4975 36.6302 63.3137C36.6716 63.2451 36.7043 63.1619 36.6201 62.9719C36.3201 62.3874 35.9582 61.7083 35.543 60.9523C35.1298 60.2003 34.6358 59.3445 34.0748 58.4103L33.9371 58.1797L34.0956 57.9767C34.25 57.7794 34.4068 57.5857 34.5659 57.3957C34.7258 57.2042 34.8885 57.0172 35.0538 56.8346C35.214 56.6576 35.3756 56.483 35.5385 56.3107C35.6936 56.1467 35.8455 55.9769 35.9939 55.8016C35.9889 55.7824 35.9713 55.7843 35.9297 55.8214C35.2037 56.6384 34.4823 57.4632 33.7655 58.2956C33.0188 59.1606 32.2865 60.0489 31.5691 60.9597L31.1956 61.4367L31.185 60.7343C31.1755 60.0553 31.1598 59.3765 31.1379 58.698C31.1163 58.0773 31.0897 57.4569 31.0579 56.837C31.036 56.2126 31.012 55.5994 30.985 54.9881C30.9569 54.3325 30.9382 53.6761 30.9289 53.0194L30.9265 52.8694L31.2182 52.5286C31.292 52.4253 31.2817 52.3613 31.2786 52.3395C31.2705 52.2891 31.2484 52.213 31.1542 52.1367C30.9178 52.0014 30.6059 51.8739 30.2543 51.7758C29.9022 51.6769 29.5752 51.6265 29.2829 51.6265C29.2741 51.6265 29.2533 51.6299 29.2194 51.651L29.2225 51.7148C29.2653 52.8658 29.2998 53.9576 29.3268 54.9914C29.3538 56.0226 29.3835 57.045 29.4148 58.0615C29.4471 59.096 29.4716 60.1185 29.4873 61.1296C29.5037 62.1391 29.5218 63.1746 29.5432 64.2343C29.5371 64.2612 29.5603 64.2811 29.635 64.2811C29.7707 64.2811 29.9067 64.2777 30.0424 64.2708C30.1782 64.2629 30.3147 64.2526 30.4505 64.2379C30.5749 64.2253 30.6991 64.2074 30.8227 64.1842C30.9214 64.1658 31.0078 64.1382 31.078 64.1025C31.1227 64.0783 31.1573 64.0446 31.185 63.995C31.2112 63.9474 31.2177 63.8631 31.2177 63.8006C31.2067 63.6096 31.2012 63.4181 31.2014 63.2266V61.5286L31.2854 61.4339C31.3912 61.3155 31.4926 61.1899 31.5893 61.0576C31.6959 60.91 31.8054 60.7662 31.9175 60.6265C32.0231 60.4956 32.1281 60.3611 32.2337 60.2221C32.3475 60.0742 32.4679 59.9364 32.5942 59.8094L32.7739 59.6288Z" fill="#50CCF3"/>
</svg>
