<?xml version="1.0" encoding="utf-8"?>
<!-- Generator: Adobe Illustrator 26.0.1, SVG Export Plug-In . SVG Version: 6.00 Build 0)  -->
<svg version="1.1" id="Layer_1" xmlns="http://www.w3.org/2000/svg" xmlns:xlink="http://www.w3.org/1999/xlink" x="0px" y="0px"
	 viewBox="0 0 56 120" style="enable-background:new 0 0 56 120;" xml:space="preserve">
<style type="text/css">
	.st0{fill:#BCD630;}
	.st1{fill:#AAC12A;}
	.st2{fill:#99AF17;}
	.st3{fill:#DBF162;}
	.st4{fill:#F3FB9D;}
</style>
<path class="st0" d="M49,113.5c14.9-35.5-0.5-66.9-0.5-66.9L36.7,22.3V4H19.5v18.3L7.7,46.6c0,0-15.4,31.3-0.5,66.9v0.4
	c0,0.9,0.2,1.7,0.5,2.5v0h0c0.9,2,2.9,3.4,5.2,3.4h30.3c2.3,0,4.3-1.4,5.2-3.4h0v0c0.3-0.8,0.5-1.6,0.5-2.5L49,113.5z"/>
<path class="st1" d="M18.3,116.4L18.3,116.4L18.3,116.4c-0.4-0.8-0.5-1.6-0.5-2.5v-0.4c-14.9-35.5,0.5-66.9,0.5-66.9L30,22.3V4H19.5
	v18.3L7.7,46.6c0,0-15.4,31.3-0.5,66.9v0.4c0,0.9,0.2,1.7,0.5,2.5v0h0c0.9,2,2.9,3.4,5.2,3.4h10.5C21.2,119.8,19.2,118.4,18.3,116.4
	z"/>
<path class="st1" d="M39.9,17.1H16.3c-1.4,0-2.5-1.1-2.5-2.5V3.1c0-1.4,1.1-2.5,2.5-2.5h23.6c1.4,0,2.5,1.1,2.5,2.5v11.5
	C42.4,16,41.3,17.1,39.9,17.1z"/>
<path class="st2" d="M24.3,14.8V2.9c0-1.3,1.2-2.3,2.6-2.3H16.4c-1.5,0-2.6,1-2.6,2.3v11.9c0,1.3,1.2,2.3,2.6,2.3h10.5
	C25.5,17.1,24.3,16.1,24.3,14.8z"/>
<path class="st0" d="M38.3,15.2c-0.4,0-0.8-0.2-1.1-0.4c-0.3-0.3-0.4-0.7-0.4-1.1V4c0-0.4,0.2-0.8,0.4-1.1c0.3-0.3,0.7-0.4,1.1-0.4
	c0.4,0,0.8,0.2,1.1,0.4c0.3,0.3,0.4,0.7,0.4,1.1v9.7c0,0.4-0.2,0.8-0.4,1.1C39.1,15.1,38.7,15.2,38.3,15.2z"/>
<path class="st3" d="M43.3,49.4c-0.4,0-0.8-0.2-1-0.4c-0.3-0.3-0.4-0.6-0.5-1c-0.2-5.9-7.1-17.1-7.1-17.2c-0.2-0.3-0.3-0.7-0.2-1.1
	c0.1-0.4,0.3-0.7,0.7-0.9c0.3-0.2,0.7-0.3,1.1-0.2c0.4,0.1,0.7,0.3,0.9,0.7c0.3,0.5,7.4,12,7.6,18.7c0,0.2,0,0.4-0.1,0.6
	c-0.1,0.2-0.2,0.4-0.3,0.5c-0.1,0.1-0.3,0.3-0.5,0.3C43.8,49.3,43.6,49.4,43.3,49.4L43.3,49.4z"/>
<path class="st3" d="M23,109.4c0,1,0.4,2.1,1.2,2.8c0.7,0.7,1.7,1.2,2.8,1.2s2.1-0.4,2.8-1.2c0.7-0.7,1.2-1.7,1.2-2.8
	c0-1-0.4-2.1-1.2-2.8c-0.7-0.7-1.7-1.2-2.8-1.2s-2.1,0.4-2.8,1.2C23.4,107.3,23,108.3,23,109.4z"/>
<path class="st3" d="M41.7,91.3c0,0.8,0.3,1.5,0.9,2.1c0.5,0.5,1.3,0.9,2.1,0.9s1.5-0.3,2.1-0.9c0.5-0.5,0.9-1.3,0.9-2.1
	c0-0.8-0.3-1.5-0.9-2.1c-0.5-0.5-1.3-0.9-2.1-0.9s-1.5,0.3-2.1,0.9C42,89.8,41.7,90.5,41.7,91.3z"/>
<path class="st3" d="M40.2,103c0,0.8,0.3,1.5,0.9,2.1c0.5,0.5,1.3,0.9,2.1,0.9c0.8,0,1.5-0.3,2.1-0.9c0.5-0.5,0.9-1.3,0.9-2.1
	c0-0.8-0.3-1.5-0.9-2.1c-0.5-0.5-1.3-0.9-2.1-0.9c-0.8,0-1.5,0.3-2.1,0.9C40.5,101.5,40.2,102.2,40.2,103z"/>
<path class="st4" d="M38.5,87.4c2-2.2,1.8-5.6-0.4-7.6c-2.2-2-5.6-1.8-7.6,0.4c-2,2.2-1.8,5.6,0.4,7.6
	C33.1,89.7,36.5,89.6,38.5,87.4z"/>
<path class="st4" d="M35.3,100.3c1-1.1,0.9-2.8-0.2-3.8c-1.1-1-2.8-0.9-3.8,0.2c-1,1.1-0.9,2.8,0.2,3.8
	C32.6,101.5,34.3,101.4,35.3,100.3z"/>
</svg>
