<svg width="17" height="45" viewBox="0 0 17 45" fill="none" xmlns="http://www.w3.org/2000/svg">
<path d="M1.37976 14.2484H14.7204C15.7326 14.2484 16.4 13.1899 15.9637 12.2762L12.2888 4.58619C12.1767 4.35146 12.0004 4.15328 11.7803 4.01455C11.5602 3.87582 11.3054 3.80222 11.0453 3.80225H5.05458C4.79449 3.8023 4.53973 3.87594 4.31972 4.01467C4.09971 4.15339 3.92344 4.35153 3.81128 4.58619L0.13646 12.2762C-0.300201 13.1897 0.366966 14.2484 1.37976 14.2484Z" fill="#EDF4FC"/>
<path d="M0.135139 12.2762L3.80996 4.58619C3.92212 4.35146 4.09842 4.15328 4.31849 4.01455C4.53855 3.87582 4.79339 3.80222 5.05354 3.80225L5.60938 3.80225L2.92616 14.2484H1.37843C0.366197 14.2484 -0.301524 13.1899 0.135139 12.2762Z" fill="#D3E2F4"/>
<path d="M4.99791 3.97969H10.6144C10.9047 3.97969 11.1831 3.86883 11.3884 3.6715C11.5937 3.47416 11.709 3.20652 11.709 2.92745V1.05218C11.709 0.773108 11.5937 0.505466 11.3884 0.308133C11.1831 0.1108 10.9047 -6.07159e-05 10.6144 -6.07159e-05H4.99791C4.70759 -6.07159e-05 4.42917 0.1108 4.22389 0.308133C4.01861 0.505466 3.90328 0.773108 3.90328 1.05218V2.92745C3.90328 3.20652 4.01861 3.47416 4.22389 3.6715C4.42917 3.86883 4.70759 3.97969 4.99791 3.97969Z" fill="#3797D3"/>
<path d="M5.06124 -6.07159e-05H5.36719V3.9795H5.06124C4.75422 3.9795 4.45977 3.86864 4.24268 3.67131C4.02558 3.47397 3.90362 3.20633 3.90362 2.92726V1.05218C3.90362 0.773108 4.02558 0.505466 4.24268 0.308133C4.45977 0.1108 4.75422 -6.07159e-05 5.06124 -6.07159e-05Z" fill="#4881C2"/>
<path d="M0.000343323 21.5422H16.0996V12.7607H0.000343323V21.5422Z" fill="#83CAFF"/>
<path d="M3.41406 12.7607H-0.000933409V21.5422H3.41406V12.7607Z" fill="#5EB0ED"/>
<path d="M5.85343 17.551C5.85343 18.6775 6.83639 19.5905 8.04879 19.5905C9.26118 19.5905 10.2441 18.6773 10.2441 17.551C10.2441 16.7264 9.06725 15.175 8.43687 14.4032C8.39144 14.3476 8.33277 14.3024 8.26544 14.2714C8.19812 14.2403 8.12396 14.2241 8.04879 14.2241C7.97361 14.2241 7.89946 14.2403 7.83213 14.2714C7.7648 14.3024 7.70613 14.3476 7.6607 14.4032C7.03032 15.175 5.85343 16.7264 5.85343 17.551Z" fill="#EDF9FF"/>
<path d="M13.5481 10.7744C13.4216 10.829 13.2814 10.8377 13.1583 10.7984C13.0352 10.7591 12.9393 10.6751 12.8917 10.5649L11.9378 8.22135C11.8902 8.11115 11.8948 7.98375 11.9506 7.86719C12.0064 7.75062 12.1088 7.65444 12.2352 7.5998C12.3617 7.54515 12.502 7.53652 12.6251 7.57581C12.7482 7.6151 12.8441 7.69908 12.8917 7.80928L13.8455 10.1528C13.8931 10.263 13.8885 10.3904 13.8328 10.507C13.777 10.6236 13.6746 10.7198 13.5481 10.7744Z" fill="white"/>
<path d="M1.37976 14.2484H14.7204C15.7326 14.2484 16.4 13.1899 15.9637 12.2762L12.2888 4.58619C12.1767 4.35146 12.0004 4.15328 11.7803 4.01455C11.5602 3.87582 11.3054 3.80222 11.0453 3.80225H5.05458C4.79449 3.8023 4.53973 3.87594 4.31972 4.01467C4.09971 4.15339 3.92344 4.35153 3.81128 4.58619L0.13646 12.2762C-0.300201 13.1897 0.366966 14.2484 1.37976 14.2484Z" fill="#DBECFF"/>
<path d="M0.135139 12.2762L3.80996 4.58619C3.92212 4.35146 4.09842 4.15328 4.31849 4.01455C4.53855 3.87582 4.79339 3.80222 5.05354 3.80225L5.60938 3.80225L2.92616 14.2484H1.37843C0.366197 14.2484 -0.301524 13.1899 0.135139 12.2762Z" fill="#D3E2F4"/>
<path d="M3.67826 44.9992H12.4248C14.4512 44.9992 16.0996 43.3508 16.0996 41.3244V22.9196C16.0996 22.5541 15.9544 22.2036 15.696 21.9451C15.4375 21.6867 15.087 21.5415 14.7216 21.5415H1.38122C1.20025 21.5415 1.02105 21.5771 0.853859 21.6464C0.686666 21.7157 0.53475 21.8172 0.406786 21.9451C0.278821 22.0731 0.177314 22.225 0.10806 22.3922C0.0388069 22.5594 0.00316048 22.7386 0.00316048 22.9196V41.3241C0.00316048 43.3508 1.65185 44.9992 3.67799 44.9992H3.67826Z" fill="#DBECFF"/>
<path d="M1.37874 21.5416L3.67579 21.5415V44.9995C1.64937 44.9995 0.000680208 43.3512 0.000680208 41.3248V22.9199C0.000680208 22.739 0.0363257 22.5598 0.10558 22.3926C0.174834 22.2254 0.27634 22.0735 0.404305 21.9455C0.532269 21.8175 0.684185 21.716 0.851378 21.6468C1.01857 21.5775 1.19777 21.5416 1.37874 21.5416Z" fill="#D3E2F4"/>
<path d="M4.99791 3.97969H10.6144C10.9047 3.97969 11.1831 3.86883 11.3884 3.6715C11.5937 3.47416 11.709 3.20652 11.709 2.92745V1.05218C11.709 0.773108 11.5937 0.505466 11.3884 0.308133C11.1831 0.1108 10.9047 -6.07159e-05 10.6144 -6.07159e-05H4.99791C4.70759 -6.07159e-05 4.42917 0.1108 4.22389 0.308133C4.01861 0.505466 3.90328 0.773108 3.90328 1.05218V2.92745C3.90328 3.20652 4.01861 3.47416 4.22389 3.6715C4.42917 3.86883 4.70759 3.97969 4.99791 3.97969Z" fill="#3797D3"/>
<path d="M5.06124 -6.07159e-05H5.36719V3.9795H5.06124C4.75422 3.9795 4.45977 3.86864 4.24268 3.67131C4.02558 3.47397 3.90362 3.20633 3.90362 2.92726V1.05218C3.90362 0.773108 4.02558 0.505466 4.24268 0.308133C4.45977 0.1108 4.75422 -6.07159e-05 5.06124 -6.07159e-05Z" fill="#4881C2"/>
<path d="M0.000343323 21.5422H16.0996V12.7607H0.000343323V21.5422Z" fill="#83CAFF"/>
<path d="M3.41406 12.7607H-0.000933409V21.5422H3.41406V12.7607Z" fill="#5EB0ED"/>
<path d="M5.85343 17.551C5.85343 18.6775 6.83639 19.5905 8.04879 19.5905C9.26118 19.5905 10.2441 18.6773 10.2441 17.551C10.2441 16.7264 9.06725 15.175 8.43687 14.4032C8.39144 14.3476 8.33277 14.3024 8.26544 14.2714C8.19812 14.2403 8.12396 14.2241 8.04879 14.2241C7.97361 14.2241 7.89946 14.2403 7.83213 14.2714C7.7648 14.3024 7.70613 14.3476 7.6607 14.4032C7.03032 15.175 5.85343 16.7264 5.85343 17.551Z" fill="#EDF9FF"/>
<path d="M14.668 32.6647C14.5302 32.6647 14.398 32.617 14.3006 32.5321C14.2032 32.4472 14.1484 32.3321 14.1484 32.212V25.4091C14.1484 25.2891 14.2032 25.174 14.3006 25.0891C14.398 25.0042 14.5302 24.9565 14.668 24.9565C14.8057 24.9565 14.9379 25.0042 15.0353 25.0891C15.1327 25.174 15.1875 25.2891 15.1875 25.4091V32.212C15.1875 32.3321 15.1327 32.4472 15.0353 32.5321C14.9379 32.617 14.8057 32.6647 14.668 32.6647Z" fill="white"/>
<path d="M13.5481 10.7744C13.4216 10.829 13.2814 10.8377 13.1583 10.7984C13.0352 10.7591 12.9393 10.6751 12.8917 10.5649L11.9378 8.22135C11.8902 8.11115 11.8948 7.98375 11.9506 7.86719C12.0064 7.75062 12.1088 7.65444 12.2352 7.5998C12.3617 7.54515 12.502 7.53652 12.6251 7.57581C12.7482 7.6151 12.8441 7.69908 12.8917 7.80928L13.8455 10.1528C13.8931 10.263 13.8885 10.3904 13.8328 10.507C13.777 10.6236 13.6746 10.7198 13.5481 10.7744Z" fill="white"/>
</svg>
