<?xml version="1.0" encoding="utf-8"?>
<!-- Generator: Adobe Illustrator 26.0.1, SVG Export Plug-In . SVG Version: 6.00 Build 0)  -->
<svg version="1.1" id="Layer_1" xmlns="http://www.w3.org/2000/svg" xmlns:xlink="http://www.w3.org/1999/xlink" x="0px" y="0px"
	 viewBox="0 0 63 108.6" style="enable-background:new 0 0 63 108.6;" xml:space="preserve">
<style type="text/css">
	.st0{fill:#364D5F;}
	.st1{fill:#FF7B74;}
	.st2{fill:#364D5F;stroke:#364D5F;stroke-width:0.25;stroke-miterlimit:10;}
	.st3{fill:#FFCFCC;}
	.st4{opacity:0.35;enable-background:new    ;}
</style>
<path class="st0" d="M53,95.8v6.1l-4.1,5.3c-6.9-8.5-4.6-8.7-11.5,0c-6.9-8.5-4.6-8.7-11.5,0c-6.6-8.3-4.7-8.5-10.9-0.9
	c-0.3,0.3-0.4,0.5-0.7,0.9l-4.1-5.3v-6.1H53z"/>
<path class="st0" d="M53,6.3v6.4H10.3V6.3L14.4,1C14.6,1.3,14.9,1.7,15,2c6,7.7,4.2,7.5,10.9-0.9c6.9,8.5,4.6,8.7,11.5,0
	c6.9,8.5,4.6,8.7,11.5,0L53,6.3z"/>
<rect x="10.3" y="14.1" class="st1" width="42.7" height="80.1"/>
<g>
	<path class="st2" d="M42.5,53c-1.1,0-2,0.3-2.7,0.9c-0.3,0.3-0.5,0.7-0.8,1.2c-0.3-1.2,0.1-1.9,0.1-1.9l0,0c0,0,0,0,0-0.1
		c0,0,0,0,0-0.1c0,0,0,0,0-0.1c0,0,0,0,0-0.1c0,0,0,0,0-0.1c0,0,0,0,0-0.1l0,0l0,0l0,0l0,0c0,0,0,0-0.1,0c0,0,0,0-0.1,0
		c0,0,0,0-0.1,0h-0.1c0,0,0,0-0.1,0c0,0,0,0-0.1,0l0,0l-0.1,0.1c-2,2.2-2,2.2-6.6,1.9c-2-0.1-3.5,0.3-4.5,1.1
		c-0.7,1.1-0.8,1.9-0.8,2l0,0l0,0l0,0c0,0,0,0,0,0.1v0.1c0,0,0,0,0,0.1c0,0,0,0,0,0.1l0,0c0,0,0.1,0,0.1,0.1l0,0h0.1h0.7
		c0.7,0.1,1.2,0.4,1.6,0.9c0.9,1.4,0.7,3.7,0.7,3.7c0,0.3,0,0.4,0,0.7c0,0.1,0,0.1,0,0.3c-0.1,2.7,0.3,5.2,1.1,7.2
		c1.5,3.5,4.3,5.2,8.1,4.6c0.5-0.1,1.1-0.3,1.6-0.4c1.5-0.5,3-1.5,3.9-2.8c1.8-2.2,1.8-4.5,1.2-6.5c0.8-1.8,1.1-4.7,0.5-8
		C45.4,53,42.6,53,42.5,53L42.5,53z M27.5,57.2h-0.1c0.1-0.1,0.3-0.4,0.4-0.7c0.7-0.7,2-0.9,3.7-0.8c2.4,0.1,3.8,0.1,4.7-0.1
		c0.5-0.1,1.1-0.5,1.5-1.1c0,0.7,0.3,1.6,0.7,2.6v0.1c0.3,0.5,0.7,1.1,1.1,1.8c0,0,0,0,0,0.1c0.1,0.1,0.3,0.4,0.4,0.5l-9.6,3.4
		c0-0.1,0.4-2.7-0.8-4.5C29.3,57.8,28.6,57.4,27.5,57.2L27.5,57.2z M43.7,71.7c-1.2,1.5-3,2.6-4.9,2.8c-2.3,0.4-5.4,0-7.1-3.9
		c-0.8-1.8-1.1-4.1-0.9-6.5l10.3-3.7c0.3,0.3,0.4,0.5,0.7,0.7C41.8,61.3,47.5,66.9,43.7,71.7L43.7,71.7z M42.5,60.5
		c-0.7-0.7-1.2-1.4-1.8-1.9c0.1-1.2,0.4-2,0.8-2.3c0.1-0.1,0.3-0.1,0.5,0c0.4,0.1,0.8,0.4,0.9,0.9c0.4,0.9,0.9,2.7,0.5,4.7
		C43,61,42.5,60.5,42.5,60.5L42.5,60.5z M45.2,58.2c0.4,2.4,0.4,4.7,0,6.2c-0.3-0.5-0.4-0.9-0.7-1.4c0.8-2.8,0.1-5.2-0.3-6.4
		c-0.3-0.7-0.9-1.2-1.6-1.5c-0.5-0.1-1.1-0.1-1.5,0.3c-0.5,0.4-0.8,0.9-1.1,1.9c-0.1-0.1-0.1-0.4-0.3-0.5c0-0.7,0.3-1.5,0.9-2.2
		c0.5-0.5,1.1-0.7,1.9-0.7C42.5,54,44.5,54.1,45.2,58.2L45.2,58.2z"/>
	<path class="st2" d="M27.4,63.7c-0.9-0.5-3.3-0.3-5.6,0.5c-2.4,0.8-4.2,2-4.7,3c-0.1,0.4-0.1,0.7-0.1,0.9l0,0l0,0l1.2,3l0,0l0,0
		l3.4,8.1c0.3,0.5,0.7,0.9,1.2,0.9c1.1,0,2.6-0.3,4.2-0.8c1.5-0.5,3-1.2,3.8-1.9c0.4-0.4,0.7-0.9,0.4-1.5l-3.3-11.7l0,0l0,0
		C27.9,64.1,27.8,63.9,27.4,63.7L27.4,63.7z M30.2,76.4c0,0.1,0,0.4-0.1,0.4c-0.7,0.5-2,1.2-3.4,1.8c-1.5,0.5-3,0.8-3.8,0.8
		c-0.1,0-0.3-0.1-0.4-0.3l-2.8-6.9c1.2,0.1,3-0.1,4.6-0.8c1.6-0.5,3.1-1.4,4.1-2.2L30.2,76.4z M27.9,67.8c-0.1,0.4-1.5,1.6-4.1,2.4
		c-2.8,0.9-4.5,0.8-4.7,0.5L18.4,69c1.2,0.1,3.1-0.1,4.7-0.8c1.6-0.5,3.3-1.4,4.2-2.3L27.9,67.8z M27.1,64.7c0,0.3-1.2,1.6-4.2,2.6
		c-2.8,0.9-4.7,0.8-4.9,0.5l0,0c0-0.3,1.4-1.6,4.2-2.6S26.9,64.4,27.1,64.7L27.1,64.7z"/>
</g>
<path class="st0" d="M16.1,39.6h31.1v3.5H16.1V39.6z"/>
<path class="st0" d="M16.1,32.7h31.1v3.5H16.1V32.7z"/>
<path class="st0" d="M10.3,16.6H53v1.6H10.3V16.6z"/>
<path class="st0" d="M10.3,19.9H53v1.6H10.3V19.9z"/>
<path class="st0" d="M10.4,87.2h42.7v1.6H10.4V87.2z"/>
<path class="st0" d="M10.4,90.6h42.7v1.6H10.4V90.6z"/>
<path class="st3" d="M49.5,84.6c0.1,0,0.1-0.1,0.3-0.3c0.1-0.1,0.1-0.3,0.3-0.5c0-0.3,0.1-0.5,0.1-0.9c0-0.4,0-0.7,0-1.1V51.9
	c0-0.7-0.1-1.4-0.3-1.9s-0.3-0.8-0.5-0.8c-0.1,0-0.4,0.3-0.5,0.8c-0.1,0.5-0.3,1.2-0.3,1.9v29.9c0,0.4,0,0.7,0,1.1
	c0,0.4,0.1,0.7,0.1,0.9c0,0.3,0.1,0.4,0.3,0.5C49.4,84.5,49.4,84.6,49.5,84.6z"/>
<rect x="10.3" y="13.9" class="st4" width="4.9" height="80.3"/>
<path class="st4" d="M15.2,2v10.7h-4.9V6.3L14.4,1C14.6,1.4,14.9,1.7,15.2,2z"/>
<path class="st4" d="M15.2,95.8v10.4c-0.3,0.3-0.4,0.5-0.7,0.9l-4.1-5.3v-6.1C10.4,95.8,15.2,95.8,15.2,95.8z"/>
</svg>
