<svg width="39" height="119" viewBox="0 0 39 119" fill="none" xmlns="http://www.w3.org/2000/svg">
<path d="M33.6346 74.839H4.95247C2.23987 74.839 0.0410156 72.6402 0.0410156 69.9276V66.9505C0.0410156 64.2379 2.23987 62.0391 4.95247 62.0391H33.6346C36.3472 62.0391 38.546 64.2379 38.546 66.9505V69.9276C38.546 72.6399 36.3469 74.839 33.6346 74.839ZM33.6346 87.639H4.95247C2.23987 87.639 0.0410156 85.4402 0.0410156 82.7276V79.7505C0.0410156 77.0379 2.23987 74.839 4.95247 74.839H33.6346C36.3472 74.839 38.546 77.0379 38.546 79.7505V82.7276C38.546 85.4399 36.3469 87.639 33.6346 87.639Z" fill="#FFEACF"/>
<path d="M3.66223 87.6389H34.9251C36.925 87.6389 38.5463 89.6868 38.5463 92.213V110.603C38.5463 114.762 35.3037 118.133 31.3039 118.133H7.28344C3.28355 118.133 0.0410156 114.762 0.0410156 110.603V92.213C0.0412612 89.6868 1.66253 87.6389 3.66223 87.6389ZM28.632 17.8666H28.6581V8.95679H9.93685V17.8664H9.95527L0.0412611 36.9407V58.2739C0.0412611 60.3531 1.66253 62.0385 3.66247 62.0385H34.9251C36.925 62.0385 38.5463 60.3529 38.5463 58.2739V36.9407L28.632 17.8666Z" fill="#FFEACF"/>
<path d="M10.3111 58.2741V36.941L20.2251 17.8666H20.2067V8.95679H9.93685V17.8664H9.95527L0.0412611 36.9407V58.2739C0.0412611 60.3531 1.66253 62.0385 3.66247 62.0385H13.9323C11.9324 62.039 10.3111 60.3534 10.3111 58.2741ZM10.3111 74.0686V71.5387C10.3111 68.7028 12.6101 66.4038 15.446 66.4038H38.4822C38.1097 63.9343 35.9847 62.039 33.4111 62.039H5.17618C2.34031 62.039 0.0412611 64.338 0.0412611 67.1739V69.7038C0.0412611 72.5399 2.34031 74.8387 5.17618 74.8387H10.3752C10.3345 74.584 10.3131 74.3266 10.3111 74.0686ZM10.3111 86.3551V83.8252C10.3111 80.9893 12.6101 78.6903 15.446 78.6903H38.3778C37.8069 76.4769 35.803 74.839 33.4111 74.839H5.17618C2.34031 74.839 0.0412611 77.138 0.0412611 79.9739V82.5038C0.0412611 85.3399 2.34031 87.6387 5.17618 87.6387H10.4796C10.3693 87.2197 10.3127 86.7884 10.3111 86.3551ZM10.3111 115.738V97.3476C10.3111 94.8214 11.9324 92.7736 13.9323 92.7736H38.5463V92.2127C38.5463 89.6865 36.925 87.6387 34.9251 87.6387H3.66223C1.66228 87.6387 0.0410156 89.6868 0.0410156 92.2127V110.603C0.0410156 114.762 3.28355 118.133 7.28344 118.133H10.6873C10.4377 117.359 10.3108 116.551 10.3111 115.738Z" fill="#FFD59A"/>
<path d="M30.2454 13.8387H8.34349C7.82245 13.8387 7.32275 13.6317 6.95432 13.2633C6.58589 12.8948 6.37891 12.3951 6.37891 11.8741V2.87779C6.37891 2.35675 6.58589 1.85705 6.95432 1.48862C7.32275 1.12019 7.82245 0.913208 8.34349 0.913208H30.2454C30.7664 0.913208 31.2661 1.12019 31.6345 1.48862C32.003 1.85705 32.2099 2.35675 32.2099 2.87779V11.8741C32.2099 12.3951 32.003 12.8948 31.6345 13.2633C31.2661 13.6317 30.7664 13.8387 30.2454 13.8387Z" fill="#F9BB32"/>
<path d="M16.6487 11.7845V2.96718C16.6487 2.69745 16.7019 2.43036 16.8051 2.18116C16.9083 1.93196 17.0596 1.70553 17.2503 1.5148C17.4411 1.32407 17.6675 1.17278 17.9167 1.06956C18.1659 0.966335 18.433 0.913208 18.7027 0.913208H8.43287C7.88813 0.913208 7.3657 1.12961 6.9805 1.5148C6.59531 1.89999 6.37891 2.42243 6.37891 2.96718V11.7847C6.37891 12.3294 6.59531 12.8519 6.9805 13.2371C7.3657 13.6223 7.88813 13.8387 8.43287 13.8387H18.7027C18.1579 13.8386 17.6355 13.6221 17.2503 13.2369C16.8651 12.8517 16.6487 12.3292 16.6487 11.7845Z" fill="#DB9C2E"/>
<path d="M33.6685 112.556C33.2777 112.556 32.9029 112.401 32.6266 112.125C32.3503 111.848 32.1951 111.474 32.1951 111.083V95.7792C32.1951 95.3884 32.3503 95.0136 32.6266 94.7373C32.9029 94.461 33.2777 94.3058 33.6685 94.3058C34.0593 94.3058 34.434 94.461 34.7104 94.7373C34.9867 95.0136 35.1419 95.3884 35.1419 95.7792V111.083C35.1419 111.474 34.9867 111.848 34.7104 112.125C34.434 112.401 34.0593 112.556 33.6685 112.556ZM33.6685 55.7072C33.2777 55.7072 32.9029 55.5519 32.6266 55.2756C32.3503 54.9993 32.1951 54.6245 32.1951 54.2337V39.6246L29.7911 35.3389C29.603 34.9983 29.5572 34.597 29.6638 34.2228C29.7704 33.8485 30.0207 33.5316 30.3601 33.3413C30.6995 33.1509 31.1004 33.1026 31.4753 33.2067C31.8503 33.3109 32.1688 33.5592 32.3613 33.8974L34.9536 38.5188C35.0771 38.7388 35.1419 38.9871 35.1419 39.2396V54.2337C35.1419 54.6245 34.9867 54.9993 34.7104 55.2756C34.434 55.5519 34.0593 55.7072 33.6685 55.7072Z" fill="#FCF9DE"/>
<path d="M27.9949 11.9669C27.6041 11.9669 27.2294 11.8117 26.953 11.5354C26.6767 11.2591 26.5215 10.8843 26.5215 10.4935V4.57915C26.5215 4.18837 26.6767 3.81359 26.953 3.53727C27.2294 3.26095 27.6041 3.10571 27.9949 3.10571C28.3857 3.10571 28.7605 3.26095 29.0368 3.53727C29.3131 3.81359 29.4684 4.18837 29.4684 4.57915V10.4935C29.4684 10.8843 29.3131 11.2591 29.0368 11.5354C28.7605 11.8117 28.3857 11.9669 27.9949 11.9669Z" fill="#FFD551"/>
<path d="M16.373 29.9971C16.373 30.5028 16.4727 31.0036 16.6662 31.4709C16.8598 31.9382 17.1434 32.3627 17.5011 32.7204C17.8587 33.078 18.2833 33.3617 18.7505 33.5552C19.2178 33.7488 19.7186 33.8484 20.2244 33.8484C20.7301 33.8484 21.2309 33.7488 21.6982 33.5552C22.1655 33.3617 22.59 33.078 22.9476 32.7204C23.3053 32.3627 23.589 31.9382 23.7825 31.4709C23.9761 31.0036 24.0757 30.5028 24.0757 29.9971C24.0757 29.4913 23.9761 28.9905 23.7825 28.5232C23.589 28.056 23.3053 27.6314 22.9476 27.2738C22.59 26.9161 22.1655 26.6325 21.6982 26.4389C21.2309 26.2454 20.7301 26.1458 20.2244 26.1458C19.7186 26.1458 19.2178 26.2454 18.7505 26.4389C18.2833 26.6325 17.8587 26.9161 17.5011 27.2738C17.1434 27.6314 16.8598 28.056 16.6662 28.5232C16.4727 28.9905 16.373 29.4913 16.373 29.9971Z" fill="#FFD59A"/>
<path d="M13.957 100.238C13.957 100.744 14.0566 101.245 14.2502 101.712C14.4437 102.179 14.7274 102.604 15.0851 102.962C15.4427 103.319 15.8672 103.603 16.3345 103.796C16.8018 103.99 17.3026 104.09 17.8083 104.09C18.3141 104.09 18.8149 103.99 19.2822 103.796C19.7494 103.603 20.174 103.319 20.5316 102.962C20.8893 102.604 21.1729 102.179 21.3665 101.712C21.56 101.245 21.6597 100.744 21.6597 100.238C21.6597 99.7325 21.56 99.2317 21.3665 98.7644C21.1729 98.2972 20.8893 97.8726 20.5316 97.515C20.174 97.1574 19.7494 96.8737 19.2822 96.6801C18.8149 96.4866 18.3141 96.387 17.8083 96.387C17.3026 96.387 16.8018 96.4866 16.3345 96.6801C15.8672 96.8737 15.4427 97.1574 15.0851 97.515C14.7274 97.8726 14.4437 98.2972 14.2502 98.7644C14.0566 99.2317 13.957 99.7325 13.957 100.238Z" fill="#FFD59A"/>
</svg>
