<svg width="55" height="120" viewBox="0 0 55 120" fill="none" xmlns="http://www.w3.org/2000/svg">
<path d="M48.2224 113.474C63.1018 77.9272 47.6969 46.5936 47.6969 46.5936L35.9364 22.3108V4.02734H18.7655V22.3108L7.00503 46.5936C7.00503 46.5936 -8.39988 77.9275 6.47952 113.474V113.888C6.47952 114.768 6.66849 115.602 7.00503 116.351V116.381H7.01833C7.93308 118.39 9.91742 119.783 12.2197 119.783H42.4827C44.7848 119.783 46.7693 118.39 47.6838 116.381H47.6971V116.351C48.0446 115.577 48.2237 114.737 48.2227 113.888L48.2224 113.474Z" fill="#FCC63C"/>
<path d="M13.5293 57.2273C13.5293 60.992 14.9856 64.6026 17.5778 67.2647C20.17 69.9268 23.6857 71.4223 27.3517 71.4223C31.0176 71.4223 34.5333 69.9268 37.1255 67.2647C39.7177 64.6026 41.174 60.992 41.174 57.2273C41.174 53.4625 39.7177 49.8519 37.1255 47.1899C34.5333 44.5278 31.0176 43.0322 27.3517 43.0322C23.6857 43.0322 20.17 44.5278 17.5778 47.1899C14.9856 49.8519 13.5293 53.4625 13.5293 57.2273Z" fill="#FCF9DE"/>
<path d="M49.6825 51.5078H5.01848C5.01848 51.5078 1.53516 61.1826 1.53516 64.5678H53.1661C53.1661 61.1823 49.6825 51.5078 49.6825 51.5078Z" fill="#FCF9DE"/>
<path d="M17.5534 116.381H17.5401V116.351C17.1926 115.576 17.0135 114.737 17.0146 113.888V113.474C2.13516 77.9269 17.5401 46.5934 17.5401 46.5934L29.3005 22.3105V4.02734H18.7655V22.3108L7.00503 46.5936C7.00503 46.5936 -8.39988 77.9275 6.47952 113.474V113.888C6.47952 114.768 6.66849 115.602 7.00503 116.351V116.381H7.01833C7.93308 118.39 9.91742 119.783 12.2197 119.783H22.7548C20.4525 119.782 18.4681 118.39 17.5534 116.381Z" fill="#FBAD1B"/>
<path d="M5.01873 51.5078C3.91325 54.6185 2.55882 59.086 1.53516 64.5678H12.0702C13.0939 59.086 14.4483 54.6185 15.5538 51.5078H5.01873Z" fill="#FFF4C1"/>
<path d="M13.5293 57.2276C13.5293 57.4894 13.5373 57.7491 13.5509 58.0071C14.8421 53.1395 16.2211 49.615 16.9722 47.8585C14.8308 50.3586 13.5293 53.6361 13.5293 57.2276Z" fill="#FFF4C1"/>
<path d="M39.1718 17.1322H15.5291C14.1431 17.1322 13.0195 16.0087 13.0195 14.6226V3.13545C13.0195 1.7494 14.1431 0.625854 15.5291 0.625854H39.1718C40.5578 0.625854 41.6814 1.7494 41.6814 3.13545V14.6229C41.6814 16.0087 40.5578 17.1322 39.1718 17.1322Z" fill="#FCC63C"/>
<path d="M23.5546 14.8134V2.94472C23.5546 1.66407 24.7338 0.625854 26.1884 0.625854H15.6534C14.1988 0.625854 13.0195 1.66407 13.0195 2.94472V14.8134C13.0195 16.094 14.1988 17.1322 15.6534 17.1322H26.1884C24.7338 17.1322 23.5546 16.094 23.5546 14.8134Z" fill="#FBAD1B"/>
<path d="M37.6151 15.2226C37.2158 15.2226 36.8328 15.0639 36.5504 14.7816C36.268 14.4992 36.1094 14.1162 36.1094 13.7168V4.02627C36.1094 3.62691 36.268 3.24392 36.5504 2.96153C36.8328 2.67915 37.2158 2.52051 37.6151 2.52051C38.0145 2.52051 38.3975 2.67915 38.6799 2.96153C38.9622 3.24392 39.1209 3.62691 39.1209 4.02627V13.7166C39.1209 14.1159 38.9623 14.499 38.6799 14.7814C38.3975 15.0638 38.0145 15.2225 37.6151 15.2226Z" fill="#FFEE99"/>
<path d="M42.6195 49.364C42.2293 49.3638 41.8544 49.2121 41.5739 48.9409C41.2934 48.6697 41.1291 48.3001 41.1157 47.9102C40.9117 42.0096 34.0357 30.851 33.9661 30.739C33.7558 30.3996 33.6888 29.9905 33.7801 29.6017C33.8713 29.2129 34.1133 28.8762 34.4528 28.6659C34.7922 28.4555 35.2013 28.3885 35.5901 28.4798C35.9789 28.571 36.3155 28.813 36.5259 29.1525C36.8266 29.6378 43.8941 41.1135 44.1252 47.8065C44.1321 48.0042 44.0999 48.2012 44.0306 48.3864C43.9613 48.5716 43.8562 48.7413 43.7213 48.8859C43.5864 49.0305 43.4243 49.1471 43.2444 49.229C43.0644 49.311 42.8701 49.3567 42.6724 49.3635L42.6195 49.364Z" fill="#FFEE99"/>
<path d="M28.7678 58.3601C28.9497 58.3601 29.1262 58.4253 29.27 58.5366L34.2514 62.4458C34.3609 62.5316 34.4469 62.6437 34.5015 62.7717C34.5561 62.8997 34.5775 63.0395 34.5637 63.178C34.5499 63.3165 34.5013 63.4492 34.4225 63.5639C34.3437 63.6786 34.2372 63.7715 34.1129 63.8339L29.0664 66.3549C28.94 66.4182 28.7994 66.448 28.6581 66.4413C28.5169 66.4346 28.3797 66.3917 28.2598 66.3167C28.1399 66.2417 28.0413 66.1371 27.9734 66.013C27.9055 65.8889 27.8706 65.7494 27.872 65.6079L27.9344 59.175C27.9373 58.9565 28.0266 58.748 28.1829 58.5952C28.3391 58.4424 28.5494 58.3579 28.7678 58.3601ZM27.1119 58.6779C27.2231 58.8209 27.2841 58.9966 27.2857 59.1777L27.3481 65.6079C27.3495 65.7494 27.3146 65.8889 27.2467 66.013C27.1788 66.1371 27.0802 66.2417 26.9603 66.3167C26.8404 66.3917 26.7032 66.4346 26.562 66.4413C26.4207 66.448 26.2801 66.4182 26.1537 66.3549L21.1099 63.8339C20.9854 63.7717 20.8787 63.6791 20.7996 63.5645C20.7205 63.4499 20.6717 63.3172 20.6576 63.1787C20.6435 63.0402 20.6647 62.9004 20.7191 62.7723C20.7735 62.6441 20.8593 62.5318 20.9687 62.4458L25.9528 58.5366C26.0381 58.4697 26.1358 58.4202 26.2403 58.3911C26.3448 58.362 26.4539 58.3537 26.5616 58.3668C26.6693 58.38 26.7733 58.4142 26.8677 58.4676C26.9621 58.5209 27.0451 58.5924 27.1119 58.6779ZM37.0936 55.6163C37.124 55.7412 37.125 55.8714 37.0963 55.9966L35.834 61.6036C35.8027 61.7421 35.7363 61.8702 35.6412 61.9755C35.5461 62.0808 35.4255 62.1598 35.2909 62.2048C35.1564 62.2499 35.0126 62.2595 34.8733 62.2327C34.734 62.2059 34.6039 62.1436 34.4957 62.0519L29.6528 57.9553C29.5361 57.8572 29.4488 57.7287 29.4007 57.584C29.3525 57.4393 29.3453 57.2841 29.3799 57.1356C29.4144 56.987 29.4894 56.851 29.5965 56.7425C29.7037 56.634 29.8387 56.5573 29.9867 56.5209L36.0946 55.0132C36.5371 54.9046 36.985 55.1735 37.0936 55.6163ZM19.1282 55.0132L25.2334 56.5209C25.3816 56.557 25.5169 56.6334 25.6244 56.7417C25.7318 56.8501 25.8071 56.9861 25.842 57.1346C25.8769 57.2832 25.8699 57.4386 25.8219 57.5834C25.7739 57.7283 25.6867 57.857 25.57 57.9553L20.7271 62.0519C20.6189 62.1436 20.4888 62.2059 20.3495 62.2327C20.2102 62.2595 20.0664 62.2499 19.9319 62.2048C19.7974 62.1598 19.6767 62.0808 19.5816 61.9755C19.4865 61.8702 19.4201 61.7421 19.3888 61.6036L18.1238 55.9966C18.0928 55.8592 18.0974 55.716 18.1373 55.5808C18.1772 55.4456 18.251 55.3229 18.3516 55.2243C18.4523 55.1257 18.5765 55.0546 18.7125 55.0176C18.8484 54.9807 18.9915 54.9792 19.1282 55.0132ZM32.628 48.45C32.7502 48.5044 32.8588 48.5858 32.9402 48.6945L36.4746 53.1633C36.5611 53.2727 36.6185 53.4022 36.6414 53.5398C36.6643 53.6774 36.652 53.8186 36.6056 53.9501C36.5593 54.0817 36.4804 54.1994 36.3763 54.2922C36.2722 54.385 36.1464 54.4499 36.0104 54.4808L29.8781 55.8663C29.7288 55.9001 29.573 55.8918 29.4281 55.8421C29.2833 55.7925 29.1551 55.7035 29.0579 55.5851C28.9607 55.4667 28.8984 55.3235 28.8778 55.1717C28.8573 55.0199 28.8794 54.8653 28.9416 54.7253L31.5395 48.8684C31.6285 48.6686 31.7932 48.5123 31.9973 48.4339C32.2014 48.3554 32.4282 48.3612 32.628 48.45ZM23.439 48.5587C23.5449 48.6402 23.6291 48.7488 23.6834 48.8684L26.2785 54.7253C26.3407 54.8653 26.3628 55.0199 26.3423 55.1717C26.3217 55.3235 26.2594 55.4667 26.1622 55.5851C26.065 55.7035 25.9368 55.7925 25.792 55.8421C25.6471 55.8918 25.4913 55.9001 25.342 55.8663L19.2124 54.4808C19.0762 54.4502 18.9501 54.3856 18.8456 54.2929C18.7412 54.2003 18.662 54.0827 18.6154 53.9511C18.5687 53.8194 18.5562 53.6782 18.579 53.5404C18.6017 53.4026 18.659 53.2729 18.7455 53.1633L22.2799 48.6891C22.4156 48.5172 22.614 48.4064 22.8314 48.3809C23.0487 48.3555 23.2673 48.4174 23.439 48.5533V48.5587ZM30.4156 47.4286C30.5557 47.4283 30.6935 47.4637 30.8161 47.5314C30.9387 47.5991 31.0421 47.697 31.1165 47.8157C31.1909 47.9345 31.2339 48.0702 31.2414 48.2102C31.2489 48.3501 31.2207 48.4897 31.1594 48.6157L28.3525 54.3667C28.2849 54.5062 28.1794 54.6238 28.0481 54.7061C27.9168 54.7884 27.765 54.832 27.61 54.832C27.4551 54.832 27.3033 54.7884 27.172 54.7061C27.0407 54.6238 26.9352 54.5062 26.8676 54.3667L24.0634 48.6157C24.0022 48.4899 23.974 48.3506 23.9814 48.2109C23.9888 48.0711 24.0315 47.9356 24.1056 47.8169C24.1797 47.6982 24.2827 47.6003 24.4049 47.5324C24.5272 47.4645 24.6647 47.4288 24.8045 47.4286H30.4156Z" fill="#FF912B"/>
</svg>
